<svg width="116" height="22" viewBox="0 0 116 22" fill="none" xmlns="http://www.w3.org/2000/svg">
<path d="M30.3732 11.9803L28.8841 11.7539C27.4647 11.5446 26.6433 11.0848 26.6433 10.2491C26.6433 9.28963 27.7124 8.69456 29.2927 8.69456C30.4102 8.69456 31.3199 9.1131 32.1911 9.55727L32.3648 9.64553C32.5655 9.74803 32.7819 9.79928 33.0054 9.79928C33.5222 9.79928 33.9991 9.51883 34.2483 9.06612L34.3693 8.84689C34.5615 8.49668 34.6027 8.0938 34.4846 7.71227C34.3664 7.33216 34.1059 7.02466 33.75 6.84671C32.4816 6.21178 31.1049 5.64091 29.2912 5.64091C25.5016 5.64091 23.0615 7.47025 23.0615 10.4157C23.0615 12.833 24.7983 14.3492 28.0869 14.7976L29.5888 14.9926C31.1761 15.2147 31.9477 15.6845 31.9477 16.4291C31.9477 17.1167 31.5761 18.0292 29.1176 18.0292C27.7623 18.0292 26.3856 17.6847 25.2681 16.9771C25.0446 16.8362 24.7883 16.7608 24.525 16.7608C24.0338 16.7608 23.5683 17.0213 23.3092 17.4398L23.2252 17.5751C23.0174 17.911 22.9547 18.3239 23.053 18.7068C23.1512 19.0898 23.3932 19.4058 23.7349 19.5966C25.6824 20.6913 27.9317 21.08 29.1161 21.08C33.0667 21.08 35.511 19.3489 35.511 16.3023C35.5153 13.868 33.7842 12.47 30.3732 11.9803ZM76.3032 17.3017C76.0185 16.9828 75.6085 16.8006 75.1814 16.8006C74.8924 16.8006 74.6106 16.8832 74.3643 17.0384C73.5599 17.548 72.6801 17.8185 71.816 17.8185C69.4428 17.8185 67.7203 15.9436 67.7203 13.3612C67.7203 10.7787 69.4428 8.90383 71.816 8.90383C72.7271 8.90383 73.5428 9.15154 74.3087 9.66119C74.9024 10.0555 75.7537 9.95446 76.242 9.43342L76.3687 9.29817C76.7033 8.94227 76.8613 8.45824 76.8043 7.97279C76.7488 7.49588 76.4883 7.07022 76.0911 6.80685C74.9237 6.0324 73.4773 5.62383 71.9071 5.62383C67.3515 5.62383 64.1698 8.8056 64.1698 13.3597C64.1698 17.9153 67.3515 21.0971 71.9071 21.0971C73.4845 21.0971 74.9394 20.68 76.1153 19.8899C76.5082 19.6265 76.7673 19.2051 76.8257 18.7325C76.8855 18.257 76.736 17.7801 76.4171 17.4242L76.3032 17.3017ZM2.58282 0.390625C1.39695 0.390625 0.46875 1.33163 0.46875 2.53174C0.46875 3.73754 1.37702 4.6458 2.58282 4.6458C3.78292 4.6458 4.72393 3.71761 4.72393 2.53174C4.72393 1.33163 3.78292 0.390625 2.58282 0.390625ZM3.22202 5.75053H1.97493C1.3642 5.75053 0.868787 6.24595 0.868787 6.85668V19.6151C0.868787 20.2258 1.3642 20.7212 1.97493 20.7212H3.22202C3.83275 20.7212 4.32817 20.2258 4.32817 19.6151V6.85668C4.32817 6.24595 3.83275 5.75053 3.22202 5.75053ZM44.1694 17.7516C42.77 17.7459 41.1428 16.6497 41.1428 14.7293V8.97359H44.1794C44.7901 8.97359 45.2855 8.47817 45.2855 7.86744V6.85668C45.2855 6.24595 44.7901 5.75053 44.1794 5.75053H41.1428V2.42924C41.1428 1.81851 40.6474 1.32309 40.0367 1.32309H38.7213C38.1105 1.32309 37.6151 1.81851 37.6151 2.42924V14.5228C37.6151 18.005 40.2573 21.0828 43.916 21.0828H43.9174C44.2819 21.0828 44.6264 20.9405 44.8869 20.68C45.146 20.4209 45.2898 20.0763 45.2898 19.7105V18.8577C45.287 18.2442 44.7844 17.7544 44.1694 17.7516ZM13.9461 5.62525C9.51866 5.62525 7.04869 9.1672 7.04869 12.1966V19.6151C7.04869 20.2258 7.54411 20.7212 8.15484 20.7212H9.41616C10.0269 20.7212 10.5223 20.2258 10.5223 19.6151V12.7533C10.5223 10.4556 11.9146 8.93373 13.9447 8.93373C15.9748 8.93373 17.367 10.4556 17.367 12.7533V19.6151C17.367 20.2258 17.8625 20.7212 18.4732 20.7212H19.7345C20.3452 20.7212 20.8407 20.2258 20.8407 19.6151V12.1966C20.8435 9.16578 18.375 5.62525 13.9461 5.62525ZM105.025 5.779C104.545 5.67365 103.342 5.62525 102.718 5.62525C102.663 5.62525 102.607 5.62667 102.553 5.62667C99.1252 5.62667 95.9591 8.42123 95.9591 12.2735C95.9591 12.2764 95.9576 12.2806 95.9576 12.2835V19.6151C95.9576 20.2258 96.4531 20.7212 97.0638 20.7212H98.3251C98.9358 20.7212 99.4313 20.2258 99.4313 19.6151V12.4002C99.4313 10.3032 100.929 8.93515 102.764 8.93515C103.1 8.94084 103.46 8.97786 103.813 9.04762C103.91 9.06612 104.007 9.07609 104.105 9.07609C104.805 9.07609 105.412 8.59206 105.576 7.91157C105.665 7.53716 105.732 7.25956 105.795 7.00473C105.857 6.74991 105.815 6.46234 105.67 6.22886C105.523 5.99824 105.294 5.83737 105.025 5.779ZM114.277 8.97359C114.887 8.97359 115.383 8.47817 115.383 7.86744V6.85668C115.383 6.24595 114.887 5.75053 114.277 5.75053H111.24V2.42924C111.24 1.81851 110.745 1.32309 110.133 1.32309H108.817C108.206 1.32309 107.711 1.81851 107.711 2.42924V14.5228C107.711 18.005 110.353 21.0828 114.012 21.0828H114.013C114.379 21.0828 114.722 20.9405 114.983 20.68C115.242 20.4209 115.386 20.0763 115.386 19.7105V18.8577C115.386 18.2427 114.883 17.753 114.268 17.7516C112.869 17.7459 111.242 16.6497 111.242 14.7293V8.97359H114.277ZM90.2005 6.81254C90.1991 6.81112 90.1963 6.8097 90.1949 6.80827C89.0275 6.03383 87.5811 5.62525 86.0108 5.62525C85.9838 5.62525 85.9567 5.62667 85.9297 5.62667C85.9026 5.62667 85.8756 5.62525 85.8485 5.62525C84.2783 5.62525 82.8305 6.03383 81.6646 6.80827C81.6631 6.8097 81.6603 6.81112 81.6589 6.81254C79.5576 8.13508 78.2749 10.4712 78.2749 13.3626C78.2749 16.3906 79.6829 18.8108 81.9635 20.0934C83.027 20.7212 84.2897 21.0957 85.6507 21.0971C88.1363 21.0985 89.6382 19.6905 90.1094 19.0755V19.6051C90.1094 20.2159 90.6048 20.7113 91.2156 20.7113H92.4769C93.0876 20.7113 93.5831 20.2159 93.5831 19.6051V13.3612C93.5845 10.4698 92.3018 8.13366 90.2005 6.81254ZM87.3192 17.5864C86.9148 17.7203 86.5034 17.7971 86.0948 17.8142C86.0649 17.8157 86.035 17.8156 86.0051 17.8171C85.9795 17.8171 85.9553 17.8185 85.9297 17.8185C85.9041 17.8185 85.8799 17.8171 85.8542 17.8171C85.8244 17.8171 85.7945 17.8157 85.7646 17.8142C85.356 17.7971 84.9431 17.7203 84.5403 17.5864C82.9088 17.0099 81.8254 15.4097 81.8254 13.3612C81.8254 10.9439 83.3359 9.14585 85.4756 8.92661C85.487 8.92519 85.4983 8.92519 85.5097 8.92376C85.5581 8.91949 85.6065 8.91522 85.6564 8.91237C85.6834 8.91095 85.7119 8.90953 85.7389 8.9081C85.7859 8.90668 85.8343 8.90526 85.8813 8.90526C85.8984 8.90526 85.914 8.90383 85.9311 8.90383C85.9482 8.90383 85.9639 8.90383 85.981 8.90526C86.0294 8.90526 86.0763 8.90668 86.1233 8.9081C86.1518 8.90953 86.1788 8.91095 86.2059 8.91237C86.2543 8.91522 86.3041 8.91807 86.3525 8.92376C86.3639 8.92519 86.3753 8.92519 86.3867 8.92661C88.5264 9.14585 90.0368 10.9424 90.0368 13.3612C90.034 15.4083 88.9506 17.0099 87.3192 17.5864ZM58.7116 6.81254C58.7102 6.81112 58.7074 6.8097 58.7059 6.80827C57.5386 6.03383 56.0922 5.62525 54.5219 5.62525C54.4949 5.62525 54.4678 5.62667 54.4408 5.62667C54.4137 5.62667 54.3867 5.62525 54.3596 5.62525C52.7894 5.62525 51.3416 6.03383 50.1756 6.80827C50.1742 6.8097 50.1714 6.81112 50.17 6.81254C48.0687 8.13508 46.786 10.4712 46.786 13.3626C46.786 16.3906 48.194 18.8108 50.4746 20.0934C51.538 20.7212 52.8008 21.0957 54.1618 21.0971C56.6474 21.0985 58.1493 19.6905 58.6205 19.0755V19.6051C58.6205 20.2159 59.1159 20.7113 59.7267 20.7113H60.988C61.5987 20.7113 62.0941 20.2159 62.0941 19.6051V13.3612C62.0956 10.4698 60.8129 8.13366 58.7116 6.81254ZM55.8302 17.5864C55.4259 17.7203 55.0145 17.7971 54.6059 17.8142C54.576 17.8157 54.5461 17.8156 54.5162 17.8171C54.4906 17.8171 54.4664 17.8185 54.4408 17.8185C54.4152 17.8185 54.391 17.8171 54.3653 17.8171C54.3354 17.8171 54.3055 17.8157 54.2757 17.8142C53.8671 17.7971 53.4542 17.7203 53.0513 17.5864C51.4199 17.0099 50.3365 15.4097 50.3365 13.3612C50.3365 10.9439 51.847 9.14585 53.9867 8.92661C53.9981 8.92519 54.0094 8.92519 54.0208 8.92376C54.0692 8.91949 54.1176 8.91522 54.1675 8.91237C54.1945 8.91095 54.223 8.90953 54.25 8.9081C54.297 8.90668 54.3454 8.90526 54.3924 8.90526C54.4095 8.90526 54.4251 8.90383 54.4422 8.90383C54.4593 8.90383 54.475 8.90383 54.492 8.90526C54.5404 8.90526 54.5874 8.90668 54.6344 8.9081C54.6629 8.90953 54.6899 8.91095 54.717 8.91237C54.7654 8.91522 54.8152 8.91807 54.8636 8.92376C54.875 8.92519 54.8864 8.92519 54.8978 8.92661C57.0375 9.14585 58.5479 10.9424 58.5479 13.3612C58.5451 15.4083 57.4617 17.0099 55.8302 17.5864Z" fill="#43B02A"/>
</svg>
